<mxfile host="app.diagrams.net" agent="Mozilla/5.0 (Windows NT 10.0; Win64; x64; rv:126.0) Gecko/20100101 Firefox/126.0" version="24.8.1">
  <diagram name="Page-1" id="9wqTwC_VcRmrC4IbnjFo">
    <mxGraphModel dx="299" dy="161" grid="0" gridSize="10" guides="0" tooltips="1" connect="0" arrows="0" fold="1" page="1" pageScale="1" pageWidth="850" pageHeight="1100" math="0" shadow="0">
      <root>
        <mxCell id="0" />
        <mxCell id="1" parent="0" />
        <mxCell id="7KpVv2kTKi0RYn0vFTpY-32" value="&lt;div align=&quot;left&quot;&gt;&lt;b&gt;&lt;font style=&quot;font-size: 15px;&quot;&gt;CPU&lt;/font&gt;&lt;/b&gt;&lt;/div&gt;&lt;div align=&quot;left&quot;&gt;&lt;b&gt;&lt;br&gt;&lt;/b&gt;&lt;/div&gt;&lt;div align=&quot;left&quot;&gt;&lt;b&gt;&lt;br&gt;&lt;/b&gt;&lt;/div&gt;&lt;div align=&quot;left&quot;&gt;&lt;b&gt;&lt;br&gt;&lt;/b&gt;&lt;/div&gt;&lt;div align=&quot;left&quot;&gt;&lt;b&gt;&lt;br&gt;&lt;/b&gt;&lt;/div&gt;&lt;div align=&quot;left&quot;&gt;&lt;b&gt;&lt;br&gt;&lt;/b&gt;&lt;/div&gt;&lt;div align=&quot;left&quot;&gt;&lt;b&gt;&lt;br&gt;&lt;/b&gt;&lt;/div&gt;&lt;div align=&quot;left&quot;&gt;&lt;b&gt;&lt;br&gt;&lt;/b&gt;&lt;/div&gt;&lt;div align=&quot;left&quot;&gt;&lt;b&gt;&lt;br&gt;&lt;/b&gt;&lt;/div&gt;&lt;div align=&quot;left&quot;&gt;&lt;b&gt;&lt;br&gt;&lt;/b&gt;&lt;/div&gt;&lt;div align=&quot;left&quot;&gt;&lt;b&gt;&lt;br&gt;&lt;/b&gt;&lt;/div&gt;&lt;div align=&quot;left&quot;&gt;&lt;b&gt;&lt;br&gt;&lt;/b&gt;&lt;/div&gt;&lt;div align=&quot;left&quot;&gt;&lt;b&gt;&lt;br&gt;&lt;/b&gt;&lt;/div&gt;&lt;div align=&quot;left&quot;&gt;&lt;b&gt;&lt;br&gt;&lt;/b&gt;&lt;/div&gt;&lt;div align=&quot;left&quot;&gt;&lt;b&gt;&lt;br&gt;&lt;/b&gt;&lt;/div&gt;&lt;div align=&quot;left&quot;&gt;&lt;b&gt;&lt;br&gt;&lt;/b&gt;&lt;/div&gt;&lt;div align=&quot;left&quot;&gt;&lt;b&gt;&lt;br&gt;&lt;/b&gt;&lt;/div&gt;&lt;div align=&quot;left&quot;&gt;&lt;b&gt;&lt;br&gt;&lt;/b&gt;&lt;/div&gt;" style="rounded=0;whiteSpace=wrap;html=1;shadow=0;glass=0;strokeColor=#474747;dashed=1;align=left;fontFamily=Garamond;" parent="1" vertex="1">
          <mxGeometry x="94" y="1490" width="440" height="267" as="geometry" />
        </mxCell>
        <mxCell id="7KpVv2kTKi0RYn0vFTpY-151" value="" style="edgeStyle=orthogonalEdgeStyle;rounded=0;orthogonalLoop=1;jettySize=auto;html=1;entryX=0;entryY=0.5;entryDx=0;entryDy=0;fontFamily=Garamond;" parent="1" target="7KpVv2kTKi0RYn0vFTpY-148" edge="1">
          <mxGeometry x="-0.0564" relative="1" as="geometry">
            <mxPoint x="173.75" y="1525" as="sourcePoint" />
            <mxPoint x="325" y="1700" as="targetPoint" />
            <Array as="points">
              <mxPoint x="124" y="1525" />
              <mxPoint x="124" y="1729" />
            </Array>
            <mxPoint as="offset" />
          </mxGeometry>
        </mxCell>
        <mxCell id="7KpVv2kTKi0RYn0vFTpY-79" value="0: addi x1,   x0,   1&#xa; &#xa;&#xa;4: addi x2,   x1,   1&#xa;&#xa;" style="text;whiteSpace=wrap;fontSize=19;" parent="1" vertex="1">
          <mxGeometry x="990" y="710" width="170" height="120" as="geometry" />
        </mxCell>
        <mxCell id="pYsNt2gjvtZY51PmCIok-15" value="" style="shape=flexArrow;endArrow=classic;html=1;rounded=0;" parent="1" edge="1">
          <mxGeometry width="50" height="50" relative="1" as="geometry">
            <mxPoint x="540" y="376.65999999999997" as="sourcePoint" />
            <mxPoint x="690" y="377" as="targetPoint" />
          </mxGeometry>
        </mxCell>
        <mxCell id="pYsNt2gjvtZY51PmCIok-9" value="" style="shape=flexArrow;endArrow=classic;html=1;rounded=0;entryX=0;entryY=0.5;entryDx=0;entryDy=0;" parent="1" target="pYsNt2gjvtZY51PmCIok-3" edge="1">
          <mxGeometry width="50" height="50" relative="1" as="geometry">
            <mxPoint x="120" y="376.65999999999997" as="sourcePoint" />
            <mxPoint x="690" y="376.65999999999997" as="targetPoint" />
          </mxGeometry>
        </mxCell>
        <mxCell id="pYsNt2gjvtZY51PmCIok-10" value="" style="shape=flexArrow;endArrow=classic;html=1;rounded=0;entryX=0;entryY=0.5;entryDx=0;entryDy=0;" parent="1" target="pYsNt2gjvtZY51PmCIok-6" edge="1">
          <mxGeometry width="50" height="50" relative="1" as="geometry">
            <mxPoint x="310" y="376.65999999999997" as="sourcePoint" />
            <mxPoint x="470" y="377" as="targetPoint" />
          </mxGeometry>
        </mxCell>
        <mxCell id="pYsNt2gjvtZY51PmCIok-1" value="&lt;div&gt;レ&lt;/div&gt;&lt;div&gt;ジ&lt;/div&gt;&lt;div&gt;ス&lt;/div&gt;&lt;div&gt;タ&lt;/div&gt;" style="rounded=0;whiteSpace=wrap;html=1;" parent="1" vertex="1">
          <mxGeometry x="90" y="292" width="30" height="170" as="geometry" />
        </mxCell>
        <mxCell id="pYsNt2gjvtZY51PmCIok-3" value="&lt;div&gt;レ&lt;/div&gt;&lt;div&gt;ジ&lt;/div&gt;&lt;div&gt;ス&lt;/div&gt;&lt;div&gt;タ&lt;/div&gt;" style="rounded=0;whiteSpace=wrap;html=1;" parent="1" vertex="1">
          <mxGeometry x="280" y="292" width="30" height="170" as="geometry" />
        </mxCell>
        <mxCell id="pYsNt2gjvtZY51PmCIok-4" value="" style="shape=flexArrow;endArrow=classic;html=1;rounded=0;" parent="1" edge="1">
          <mxGeometry width="50" height="50" relative="1" as="geometry">
            <mxPoint x="90" y="140" as="sourcePoint" />
            <mxPoint x="660" y="140" as="targetPoint" />
          </mxGeometry>
        </mxCell>
        <mxCell id="pYsNt2gjvtZY51PmCIok-2" value="&lt;font style=&quot;font-size: 18px;&quot;&gt;組み合わせ回路&lt;/font&gt;" style="ellipse;shape=cloud;whiteSpace=wrap;html=1;" parent="1" vertex="1">
          <mxGeometry x="250" y="50" width="230" height="160" as="geometry" />
        </mxCell>
        <mxCell id="pYsNt2gjvtZY51PmCIok-6" value="&lt;div&gt;レ&lt;/div&gt;&lt;div&gt;ジ&lt;/div&gt;&lt;div&gt;ス&lt;/div&gt;&lt;div&gt;タ&lt;/div&gt;" style="rounded=0;whiteSpace=wrap;html=1;" parent="1" vertex="1">
          <mxGeometry x="510" y="292.01" width="30" height="170" as="geometry" />
        </mxCell>
        <mxCell id="pYsNt2gjvtZY51PmCIok-7" value="組み合わせ回路" style="ellipse;shape=cloud;whiteSpace=wrap;html=1;" parent="1" vertex="1">
          <mxGeometry x="320" y="314.5" width="160" height="125" as="geometry" />
        </mxCell>
        <mxCell id="pYsNt2gjvtZY51PmCIok-13" value="組み合わせ回路" style="ellipse;shape=cloud;whiteSpace=wrap;html=1;" parent="1" vertex="1">
          <mxGeometry x="140" y="335.13" width="110" height="83.75" as="geometry" />
        </mxCell>
        <mxCell id="pYsNt2gjvtZY51PmCIok-14" value="組み合わせ回路" style="ellipse;shape=cloud;whiteSpace=wrap;html=1;" parent="1" vertex="1">
          <mxGeometry x="550" y="343.58" width="120" height="66.87" as="geometry" />
        </mxCell>
        <mxCell id="pYsNt2gjvtZY51PmCIok-18" value="&lt;div&gt;&lt;font style=&quot;font-size: 18px;&quot;&gt;ステージ1&lt;/font&gt;&lt;/div&gt;" style="text;html=1;align=center;verticalAlign=middle;whiteSpace=wrap;rounded=0;" parent="1" vertex="1">
          <mxGeometry x="150" y="292.01" width="90" height="30" as="geometry" />
        </mxCell>
        <mxCell id="pYsNt2gjvtZY51PmCIok-19" value="&lt;div&gt;&lt;font style=&quot;font-size: 18px;&quot;&gt;ステージ3&lt;/font&gt;&lt;/div&gt;" style="text;html=1;align=center;verticalAlign=middle;whiteSpace=wrap;rounded=0;" parent="1" vertex="1">
          <mxGeometry x="565" y="292" width="90" height="30" as="geometry" />
        </mxCell>
        <mxCell id="pYsNt2gjvtZY51PmCIok-20" value="&lt;div&gt;&lt;font style=&quot;font-size: 18px;&quot;&gt;ステージ2&lt;/font&gt;&lt;/div&gt;" style="text;html=1;align=center;verticalAlign=middle;whiteSpace=wrap;rounded=0;" parent="1" vertex="1">
          <mxGeometry x="365" y="292" width="90" height="30" as="geometry" />
        </mxCell>
        <mxCell id="pYsNt2gjvtZY51PmCIok-22" value="" style="shape=flexArrow;endArrow=classic;html=1;rounded=0;entryX=0;entryY=0.5;entryDx=0;entryDy=0;" parent="1" target="pYsNt2gjvtZY51PmCIok-25" edge="1">
          <mxGeometry width="50" height="50" relative="1" as="geometry">
            <mxPoint x="119" y="645.66" as="sourcePoint" />
            <mxPoint x="689" y="645.66" as="targetPoint" />
          </mxGeometry>
        </mxCell>
        <mxCell id="pYsNt2gjvtZY51PmCIok-24" value="&lt;div align=&quot;center&quot;&gt;F&lt;/div&gt;&lt;div align=&quot;center&quot;&gt;I&lt;/div&gt;&lt;div align=&quot;center&quot;&gt;F&lt;/div&gt;&lt;div align=&quot;center&quot;&gt;O&lt;/div&gt;" style="rounded=0;whiteSpace=wrap;html=1;align=center;" parent="1" vertex="1">
          <mxGeometry x="94" y="561" width="30" height="170" as="geometry" />
        </mxCell>
        <mxCell id="pYsNt2gjvtZY51PmCIok-25" value="&lt;div&gt;F&lt;/div&gt;&lt;div&gt;I&lt;/div&gt;&lt;div&gt;F&lt;/div&gt;&lt;div&gt;O&lt;/div&gt;" style="rounded=0;whiteSpace=wrap;html=1;" parent="1" vertex="1">
          <mxGeometry x="200" y="561.01" width="30" height="170" as="geometry" />
        </mxCell>
        <mxCell id="pYsNt2gjvtZY51PmCIok-30" value="&lt;font style=&quot;font-size: 24px;&quot;&gt;IF&lt;/font&gt;" style="text;html=1;align=center;verticalAlign=middle;whiteSpace=wrap;rounded=0;" parent="1" vertex="1">
          <mxGeometry x="10" y="561.01" width="90" height="30" as="geometry" />
        </mxCell>
        <mxCell id="pYsNt2gjvtZY51PmCIok-33" value="" style="shape=flexArrow;endArrow=classic;html=1;rounded=0;entryX=0;entryY=0.5;entryDx=0;entryDy=0;" parent="1" target="pYsNt2gjvtZY51PmCIok-34" edge="1">
          <mxGeometry width="50" height="50" relative="1" as="geometry">
            <mxPoint x="229" y="645.65" as="sourcePoint" />
            <mxPoint x="799" y="645.65" as="targetPoint" />
          </mxGeometry>
        </mxCell>
        <mxCell id="pYsNt2gjvtZY51PmCIok-34" value="&lt;div&gt;F&lt;/div&gt;&lt;div&gt;I&lt;/div&gt;&lt;div&gt;F&lt;/div&gt;&lt;div&gt;O&lt;/div&gt;" style="rounded=0;whiteSpace=wrap;html=1;" parent="1" vertex="1">
          <mxGeometry x="310" y="561.01" width="30" height="170" as="geometry" />
        </mxCell>
        <mxCell id="pYsNt2gjvtZY51PmCIok-35" value="&lt;font style=&quot;font-size: 24px;&quot;&gt;EX&lt;/font&gt;" style="text;html=1;align=center;verticalAlign=middle;whiteSpace=wrap;rounded=0;" parent="1" vertex="1">
          <mxGeometry x="225" y="561" width="90" height="30" as="geometry" />
        </mxCell>
        <mxCell id="pYsNt2gjvtZY51PmCIok-36" value="" style="shape=flexArrow;endArrow=classic;html=1;rounded=0;" parent="1" edge="1">
          <mxGeometry width="50" height="50" relative="1" as="geometry">
            <mxPoint x="339" y="645.67" as="sourcePoint" />
            <mxPoint x="430" y="646" as="targetPoint" />
          </mxGeometry>
        </mxCell>
        <mxCell id="pYsNt2gjvtZY51PmCIok-38" value="&lt;font style=&quot;font-size: 24px;&quot;&gt;MEM&lt;/font&gt;" style="text;html=1;align=center;verticalAlign=middle;whiteSpace=wrap;rounded=0;" parent="1" vertex="1">
          <mxGeometry x="337" y="561.01" width="90" height="30" as="geometry" />
        </mxCell>
        <mxCell id="pYsNt2gjvtZY51PmCIok-39" value="" style="shape=flexArrow;endArrow=classic;html=1;rounded=0;entryX=0;entryY=0.5;entryDx=0;entryDy=0;" parent="1" edge="1">
          <mxGeometry width="50" height="50" relative="1" as="geometry">
            <mxPoint x="459.9999999999998" y="645.6782352941176" as="sourcePoint" />
            <mxPoint x="529.9999999999998" y="645.67" as="targetPoint" />
          </mxGeometry>
        </mxCell>
        <mxCell id="pYsNt2gjvtZY51PmCIok-41" value="&lt;font style=&quot;font-size: 24px;&quot;&gt;WB&lt;/font&gt;" style="text;html=1;align=center;verticalAlign=middle;whiteSpace=wrap;rounded=0;" parent="1" vertex="1">
          <mxGeometry x="454" y="561" width="90" height="30" as="geometry" />
        </mxCell>
        <mxCell id="pYsNt2gjvtZY51PmCIok-42" value="" style="shape=flexArrow;endArrow=classic;html=1;rounded=0;entryX=0;entryY=0.5;entryDx=0;entryDy=0;" parent="1" target="pYsNt2gjvtZY51PmCIok-37" edge="1">
          <mxGeometry width="50" height="50" relative="1" as="geometry">
            <mxPoint x="449" y="645.65" as="sourcePoint" />
            <mxPoint x="529.9999999999998" y="646" as="targetPoint" />
          </mxGeometry>
        </mxCell>
        <mxCell id="pYsNt2gjvtZY51PmCIok-37" value="&lt;div&gt;F&lt;/div&gt;&lt;div&gt;I&lt;/div&gt;&lt;div&gt;F&lt;/div&gt;&lt;div&gt;O&lt;/div&gt;" style="rounded=0;whiteSpace=wrap;html=1;" parent="1" vertex="1">
          <mxGeometry x="430" y="561.01" width="30" height="170" as="geometry" />
        </mxCell>
        <mxCell id="pYsNt2gjvtZY51PmCIok-43" value="" style="shape=flexArrow;endArrow=classic;html=1;rounded=0;entryX=0;entryY=0.5;entryDx=0;entryDy=0;" parent="1" edge="1">
          <mxGeometry width="50" height="50" relative="1" as="geometry">
            <mxPoint x="23.999999999999773" y="645.6782352941176" as="sourcePoint" />
            <mxPoint x="93.99999999999977" y="645.67" as="targetPoint" />
          </mxGeometry>
        </mxCell>
        <mxCell id="pYsNt2gjvtZY51PmCIok-44" value="&lt;font style=&quot;font-size: 24px;&quot;&gt;ID&lt;/font&gt;" style="text;html=1;align=center;verticalAlign=middle;whiteSpace=wrap;rounded=0;" parent="1" vertex="1">
          <mxGeometry x="120" y="561.01" width="90" height="30" as="geometry" />
        </mxCell>
        <mxCell id="pYsNt2gjvtZY51PmCIok-48" value="&lt;font style=&quot;font-size: 24px;&quot;&gt;IF&lt;/font&gt;" style="text;html=1;align=center;verticalAlign=middle;whiteSpace=wrap;rounded=0;" parent="1" vertex="1">
          <mxGeometry x="50" y="900.01" width="90" height="30" as="geometry" />
        </mxCell>
        <mxCell id="pYsNt2gjvtZY51PmCIok-51" value="&lt;font style=&quot;font-size: 24px;&quot;&gt;EX&lt;/font&gt;" style="text;html=1;align=center;verticalAlign=middle;whiteSpace=wrap;rounded=0;" parent="1" vertex="1">
          <mxGeometry x="265" y="900" width="90" height="30" as="geometry" />
        </mxCell>
        <mxCell id="pYsNt2gjvtZY51PmCIok-53" value="&lt;font style=&quot;font-size: 24px;&quot;&gt;MEM&lt;/font&gt;" style="text;html=1;align=center;verticalAlign=middle;whiteSpace=wrap;rounded=0;" parent="1" vertex="1">
          <mxGeometry x="377" y="900.01" width="90" height="30" as="geometry" />
        </mxCell>
        <mxCell id="pYsNt2gjvtZY51PmCIok-55" value="&lt;font style=&quot;font-size: 24px;&quot;&gt;WB&lt;/font&gt;" style="text;html=1;align=center;verticalAlign=middle;whiteSpace=wrap;rounded=0;" parent="1" vertex="1">
          <mxGeometry x="494" y="900" width="90" height="30" as="geometry" />
        </mxCell>
        <mxCell id="pYsNt2gjvtZY51PmCIok-59" value="&lt;font style=&quot;font-size: 24px;&quot;&gt;ID&lt;/font&gt;" style="text;html=1;align=center;verticalAlign=middle;whiteSpace=wrap;rounded=0;" parent="1" vertex="1">
          <mxGeometry x="160" y="900.01" width="90" height="30" as="geometry" />
        </mxCell>
        <mxCell id="pYsNt2gjvtZY51PmCIok-60" value="" style="endArrow=none;dashed=1;html=1;rounded=0;" parent="1" edge="1">
          <mxGeometry width="50" height="50" relative="1" as="geometry">
            <mxPoint x="150" y="1140" as="sourcePoint" />
            <mxPoint x="150" y="900" as="targetPoint" />
          </mxGeometry>
        </mxCell>
        <mxCell id="pYsNt2gjvtZY51PmCIok-62" style="edgeStyle=orthogonalEdgeStyle;rounded=0;orthogonalLoop=1;jettySize=auto;html=1;" parent="1" edge="1">
          <mxGeometry relative="1" as="geometry">
            <mxPoint x="540" y="955" as="targetPoint" />
            <mxPoint x="125" y="954.9655172413793" as="sourcePoint" />
          </mxGeometry>
        </mxCell>
        <mxCell id="pYsNt2gjvtZY51PmCIok-63" value="&lt;div&gt;addr&lt;/div&gt;&lt;div&gt;bits&lt;br&gt;&lt;/div&gt;" style="text;html=1;align=center;verticalAlign=middle;whiteSpace=wrap;rounded=0;" parent="1" vertex="1">
          <mxGeometry x="65" y="939" width="60" height="30" as="geometry" />
        </mxCell>
        <mxCell id="pYsNt2gjvtZY51PmCIok-65" style="edgeStyle=orthogonalEdgeStyle;rounded=0;orthogonalLoop=1;jettySize=auto;html=1;" parent="1" source="pYsNt2gjvtZY51PmCIok-64" edge="1">
          <mxGeometry relative="1" as="geometry">
            <mxPoint x="540" y="985" as="targetPoint" />
          </mxGeometry>
        </mxCell>
        <mxCell id="pYsNt2gjvtZY51PmCIok-64" value="&lt;div&gt;ctrl&lt;/div&gt;&lt;div&gt;imm&lt;br&gt;&lt;/div&gt;" style="text;html=1;align=center;verticalAlign=middle;whiteSpace=wrap;rounded=0;" parent="1" vertex="1">
          <mxGeometry x="175" y="970" width="60" height="30" as="geometry" />
        </mxCell>
        <mxCell id="pYsNt2gjvtZY51PmCIok-70" style="edgeStyle=orthogonalEdgeStyle;rounded=0;orthogonalLoop=1;jettySize=auto;html=1;" parent="1" source="pYsNt2gjvtZY51PmCIok-68" edge="1">
          <mxGeometry relative="1" as="geometry">
            <mxPoint x="429.9999999999998" y="1044.5" as="targetPoint" />
          </mxGeometry>
        </mxCell>
        <mxCell id="pYsNt2gjvtZY51PmCIok-68" value="rs1_addr&lt;div&gt;rs1_data&lt;/div&gt;&lt;div&gt;rs2_data&lt;/div&gt;&lt;div&gt;br_taken&lt;/div&gt;&lt;div&gt;jump_addr &lt;/div&gt;" style="text;html=1;align=center;verticalAlign=middle;whiteSpace=wrap;rounded=0;" parent="1" vertex="1">
          <mxGeometry x="280" y="999" width="60" height="91" as="geometry" />
        </mxCell>
        <mxCell id="pYsNt2gjvtZY51PmCIok-74" style="edgeStyle=orthogonalEdgeStyle;rounded=0;orthogonalLoop=1;jettySize=auto;html=1;" parent="1" source="pYsNt2gjvtZY51PmCIok-73" edge="1">
          <mxGeometry relative="1" as="geometry">
            <mxPoint x="539.9999999999998" y="1122.9999999999998" as="targetPoint" />
          </mxGeometry>
        </mxCell>
        <mxCell id="pYsNt2gjvtZY51PmCIok-73" value="&lt;div&gt;alu_result&lt;/div&gt;" style="text;html=1;align=center;verticalAlign=middle;whiteSpace=wrap;rounded=0;" parent="1" vertex="1">
          <mxGeometry x="280" y="1108" width="60" height="30" as="geometry" />
        </mxCell>
        <mxCell id="pYsNt2gjvtZY51PmCIok-75" value="" style="endArrow=none;dashed=1;html=1;rounded=0;" parent="1" edge="1">
          <mxGeometry width="50" height="50" relative="1" as="geometry">
            <mxPoint x="250" y="1140.01" as="sourcePoint" />
            <mxPoint x="250" y="900.01" as="targetPoint" />
          </mxGeometry>
        </mxCell>
        <mxCell id="pYsNt2gjvtZY51PmCIok-76" value="" style="endArrow=none;dashed=1;html=1;rounded=0;" parent="1" edge="1">
          <mxGeometry width="50" height="50" relative="1" as="geometry">
            <mxPoint x="364.31" y="1140.01" as="sourcePoint" />
            <mxPoint x="364.31" y="900.01" as="targetPoint" />
          </mxGeometry>
        </mxCell>
        <mxCell id="pYsNt2gjvtZY51PmCIok-77" value="" style="endArrow=none;dashed=1;html=1;rounded=0;" parent="1" edge="1">
          <mxGeometry width="50" height="50" relative="1" as="geometry">
            <mxPoint x="480" y="1140" as="sourcePoint" />
            <mxPoint x="480" y="900" as="targetPoint" />
          </mxGeometry>
        </mxCell>
        <mxCell id="pYsNt2gjvtZY51PmCIok-79" style="edgeStyle=orthogonalEdgeStyle;rounded=0;orthogonalLoop=1;jettySize=auto;html=1;" parent="1" source="pYsNt2gjvtZY51PmCIok-78" edge="1">
          <mxGeometry relative="1" as="geometry">
            <mxPoint x="539.9999999999998" y="1093" as="targetPoint" />
          </mxGeometry>
        </mxCell>
        <mxCell id="pYsNt2gjvtZY51PmCIok-78" value="&lt;div align=&quot;center&quot;&gt;mem_rdata&lt;/div&gt;&lt;div align=&quot;center&quot;&gt;csr_rdata&lt;/div&gt;" style="text;html=1;align=center;verticalAlign=middle;whiteSpace=wrap;rounded=0;" parent="1" vertex="1">
          <mxGeometry x="392" y="1078" width="60" height="30" as="geometry" />
        </mxCell>
        <mxCell id="7KpVv2kTKi0RYn0vFTpY-18" value="&lt;div&gt;C&lt;/div&gt;" style="edgeStyle=orthogonalEdgeStyle;rounded=0;orthogonalLoop=1;jettySize=auto;html=1;endArrow=none;endFill=0;" parent="1" edge="1">
          <mxGeometry x="1" y="9" relative="1" as="geometry">
            <mxPoint x="376" y="1320" as="targetPoint" />
            <mxPoint x="352" y="1320" as="sourcePoint" />
            <mxPoint x="9" y="9" as="offset" />
          </mxGeometry>
        </mxCell>
        <mxCell id="7KpVv2kTKi0RYn0vFTpY-19" style="edgeStyle=orthogonalEdgeStyle;rounded=0;orthogonalLoop=1;jettySize=auto;html=1;exitX=0;exitY=0.25;exitDx=0;exitDy=0;exitPerimeter=0;endArrow=none;endFill=0;" parent="1" source="7KpVv2kTKi0RYn0vFTpY-15" edge="1">
          <mxGeometry relative="1" as="geometry">
            <mxPoint x="240" y="1254" as="targetPoint" />
            <mxPoint x="292" y="1308" as="sourcePoint" />
            <Array as="points">
              <mxPoint x="289" y="1302" />
              <mxPoint x="241" y="1302" />
              <mxPoint x="241" y="1254" />
            </Array>
          </mxGeometry>
        </mxCell>
        <mxCell id="7KpVv2kTKi0RYn0vFTpY-15" value="&lt;b&gt;AND&lt;/b&gt;" style="shape=or;whiteSpace=wrap;html=1;" parent="1" vertex="1">
          <mxGeometry x="289" y="1290" width="63" height="60" as="geometry" />
        </mxCell>
        <mxCell id="7KpVv2kTKi0RYn0vFTpY-24" style="edgeStyle=orthogonalEdgeStyle;rounded=0;orthogonalLoop=1;jettySize=auto;html=1;endArrow=none;endFill=0;" parent="1" edge="1">
          <mxGeometry relative="1" as="geometry">
            <mxPoint x="210" y="1255" as="targetPoint" />
            <mxPoint x="275" y="1255" as="sourcePoint" />
          </mxGeometry>
        </mxCell>
        <mxCell id="7KpVv2kTKi0RYn0vFTpY-16" value="" style="verticalLabelPosition=bottom;shadow=0;dashed=0;align=center;html=1;verticalAlign=top;shape=mxgraph.electrical.logic_gates.logic_gate;operation=xor;" parent="1" vertex="1">
          <mxGeometry x="275" y="1210" width="100" height="60" as="geometry" />
        </mxCell>
        <mxCell id="7KpVv2kTKi0RYn0vFTpY-17" value="&lt;div align=&quot;center&quot; style=&quot;font-size: 13px;&quot;&gt;&lt;font style=&quot;font-size: 13px;&quot;&gt;XOR&lt;/font&gt;&lt;/div&gt;" style="text;strokeColor=none;fillColor=none;html=1;fontSize=24;fontStyle=1;verticalAlign=middle;align=center;" parent="1" vertex="1">
          <mxGeometry x="288.5" y="1220" width="66.5" height="40" as="geometry" />
        </mxCell>
        <mxCell id="7KpVv2kTKi0RYn0vFTpY-22" value="S" style="shape=table;startSize=0;container=1;collapsible=0;childLayout=tableLayout;fontSize=11;fillColor=none;strokeColor=none;" parent="1" vertex="1">
          <mxGeometry x="380" y="1229" width="10" height="20" as="geometry" />
        </mxCell>
        <mxCell id="7KpVv2kTKi0RYn0vFTpY-23" style="edgeStyle=orthogonalEdgeStyle;rounded=0;orthogonalLoop=1;jettySize=auto;html=1;exitX=0;exitY=0.75;exitDx=0;exitDy=0;exitPerimeter=0;endArrow=none;endFill=0;" parent="1" source="7KpVv2kTKi0RYn0vFTpY-15" edge="1">
          <mxGeometry relative="1" as="geometry">
            <mxPoint x="180" y="1225" as="targetPoint" />
            <mxPoint x="292" y="1329" as="sourcePoint" />
          </mxGeometry>
        </mxCell>
        <mxCell id="7KpVv2kTKi0RYn0vFTpY-25" style="edgeStyle=orthogonalEdgeStyle;rounded=0;orthogonalLoop=1;jettySize=auto;html=1;endArrow=none;endFill=0;" parent="1" edge="1">
          <mxGeometry relative="1" as="geometry">
            <mxPoint x="170" y="1225" as="targetPoint" />
            <mxPoint x="275" y="1225" as="sourcePoint" />
          </mxGeometry>
        </mxCell>
        <mxCell id="7KpVv2kTKi0RYn0vFTpY-26" value="Y" style="shape=table;startSize=0;container=1;collapsible=0;childLayout=tableLayout;fontSize=11;fillColor=none;strokeColor=none;" parent="1" vertex="1">
          <mxGeometry x="200" y="1244" width="10" height="20" as="geometry" />
        </mxCell>
        <mxCell id="7KpVv2kTKi0RYn0vFTpY-27" value="X" style="shape=table;startSize=0;container=1;collapsible=0;childLayout=tableLayout;fontSize=11;fillColor=none;strokeColor=none;" parent="1" vertex="1">
          <mxGeometry x="160" y="1215" width="10" height="20" as="geometry" />
        </mxCell>
        <mxCell id="7KpVv2kTKi0RYn0vFTpY-159" value="&lt;div&gt;7. 次のPCを設定&lt;/div&gt;" style="edgeStyle=orthogonalEdgeStyle;rounded=0;orthogonalLoop=1;jettySize=auto;html=1;startArrow=classic;startFill=1;endArrow=none;endFill=0;fontFamily=Garamond;" parent="1" source="7KpVv2kTKi0RYn0vFTpY-33" edge="1">
          <mxGeometry x="0.9905" y="1" relative="1" as="geometry">
            <mxPoint x="343.2499999999998" y="1540" as="targetPoint" />
            <mxPoint as="offset" />
          </mxGeometry>
        </mxCell>
        <mxCell id="7KpVv2kTKi0RYn0vFTpY-33" value="PC" style="rounded=0;whiteSpace=wrap;html=1;fontFamily=Garamond;" parent="1" vertex="1">
          <mxGeometry x="313" y="1497" width="60.5" height="20" as="geometry" />
        </mxCell>
        <mxCell id="7KpVv2kTKi0RYn0vFTpY-49" value="data1" style="rounded=0;whiteSpace=wrap;html=1;" parent="1" vertex="1">
          <mxGeometry x="900" y="200" width="120" height="30" as="geometry" />
        </mxCell>
        <mxCell id="7KpVv2kTKi0RYn0vFTpY-50" value="data2" style="rounded=0;whiteSpace=wrap;html=1;" parent="1" vertex="1">
          <mxGeometry x="900" y="170" width="120" height="30" as="geometry" />
        </mxCell>
        <mxCell id="7KpVv2kTKi0RYn0vFTpY-51" value="data3" style="rounded=0;whiteSpace=wrap;html=1;" parent="1" vertex="1">
          <mxGeometry x="900" y="140" width="120" height="30" as="geometry" />
        </mxCell>
        <mxCell id="7KpVv2kTKi0RYn0vFTpY-52" value="" style="endArrow=none;html=1;rounded=0;" parent="1" edge="1">
          <mxGeometry width="50" height="50" relative="1" as="geometry">
            <mxPoint x="900" y="256" as="sourcePoint" />
            <mxPoint x="900" y="116" as="targetPoint" />
          </mxGeometry>
        </mxCell>
        <mxCell id="7KpVv2kTKi0RYn0vFTpY-53" value="" style="endArrow=none;html=1;rounded=0;" parent="1" edge="1">
          <mxGeometry width="50" height="50" relative="1" as="geometry">
            <mxPoint x="1020" y="256" as="sourcePoint" />
            <mxPoint x="1020" y="116" as="targetPoint" />
          </mxGeometry>
        </mxCell>
        <mxCell id="7KpVv2kTKi0RYn0vFTpY-54" value="dequeue" style="endArrow=classic;html=1;rounded=0;exitX=0.5;exitY=1;exitDx=0;exitDy=0;" parent="1" source="7KpVv2kTKi0RYn0vFTpY-49" edge="1">
          <mxGeometry x="1" y="10" width="50" height="50" relative="1" as="geometry">
            <mxPoint x="910" y="260" as="sourcePoint" />
            <mxPoint x="960" y="270" as="targetPoint" />
            <mxPoint x="-10" y="10" as="offset" />
          </mxGeometry>
        </mxCell>
        <mxCell id="7KpVv2kTKi0RYn0vFTpY-57" style="edgeStyle=orthogonalEdgeStyle;rounded=0;orthogonalLoop=1;jettySize=auto;html=1;entryX=0.5;entryY=0;entryDx=0;entryDy=0;curved=1;exitX=0.5;exitY=1;exitDx=0;exitDy=0;" parent="1" source="7KpVv2kTKi0RYn0vFTpY-56" target="7KpVv2kTKi0RYn0vFTpY-51" edge="1">
          <mxGeometry relative="1" as="geometry">
            <Array as="points">
              <mxPoint x="990" y="110" />
              <mxPoint x="960" y="110" />
            </Array>
          </mxGeometry>
        </mxCell>
        <mxCell id="7KpVv2kTKi0RYn0vFTpY-56" value="enqueue" style="rounded=0;whiteSpace=wrap;html=1;strokeColor=none;" parent="1" vertex="1">
          <mxGeometry x="960" y="70" width="60" height="20" as="geometry" />
        </mxCell>
        <mxCell id="7KpVv2kTKi0RYn0vFTpY-67" style="edgeStyle=orthogonalEdgeStyle;rounded=0;orthogonalLoop=1;jettySize=auto;html=1;" parent="1" source="7KpVv2kTKi0RYn0vFTpY-58" edge="1">
          <mxGeometry relative="1" as="geometry">
            <mxPoint x="970" y="590" as="targetPoint" />
          </mxGeometry>
        </mxCell>
        <mxCell id="7KpVv2kTKi0RYn0vFTpY-58" value="jal x0, X" style="rounded=0;whiteSpace=wrap;html=1;" parent="1" vertex="1">
          <mxGeometry x="910" y="520" width="120" height="30" as="geometry" />
        </mxCell>
        <mxCell id="7KpVv2kTKi0RYn0vFTpY-59" value="nop" style="rounded=0;whiteSpace=wrap;html=1;" parent="1" vertex="1">
          <mxGeometry x="910" y="490" width="120" height="30" as="geometry" />
        </mxCell>
        <mxCell id="7KpVv2kTKi0RYn0vFTpY-60" value="nop" style="rounded=0;whiteSpace=wrap;html=1;" parent="1" vertex="1">
          <mxGeometry x="910" y="460" width="120" height="30" as="geometry" />
        </mxCell>
        <mxCell id="7KpVv2kTKi0RYn0vFTpY-61" value="" style="endArrow=none;html=1;rounded=0;" parent="1" edge="1">
          <mxGeometry width="50" height="50" relative="1" as="geometry">
            <mxPoint x="910" y="568" as="sourcePoint" />
            <mxPoint x="910" y="444" as="targetPoint" />
          </mxGeometry>
        </mxCell>
        <mxCell id="7KpVv2kTKi0RYn0vFTpY-62" value="" style="endArrow=none;html=1;rounded=0;" parent="1" edge="1">
          <mxGeometry width="50" height="50" relative="1" as="geometry">
            <mxPoint x="1030" y="568" as="sourcePoint" />
            <mxPoint x="1030" y="444" as="targetPoint" />
          </mxGeometry>
        </mxCell>
        <mxCell id="7KpVv2kTKi0RYn0vFTpY-64" style="edgeStyle=orthogonalEdgeStyle;rounded=0;orthogonalLoop=1;jettySize=auto;html=1;entryX=0.5;entryY=0;entryDx=0;entryDy=0;curved=1;exitX=0.5;exitY=1;exitDx=0;exitDy=0;" parent="1" source="7KpVv2kTKi0RYn0vFTpY-65" target="7KpVv2kTKi0RYn0vFTpY-60" edge="1">
          <mxGeometry relative="1" as="geometry">
            <Array as="points">
              <mxPoint x="1020" y="430" />
              <mxPoint x="970" y="430" />
            </Array>
          </mxGeometry>
        </mxCell>
        <mxCell id="7KpVv2kTKi0RYn0vFTpY-65" value="ジャンプ先の命令" style="rounded=0;whiteSpace=wrap;html=1;strokeColor=default;" parent="1" vertex="1">
          <mxGeometry x="940" y="400" width="120" height="30" as="geometry" />
        </mxCell>
        <mxCell id="7KpVv2kTKi0RYn0vFTpY-68" value="&lt;div style=&quot;font-size: 13px;&quot; align=&quot;center&quot;&gt;&amp;nbsp; &lt;font style=&quot;font-size: 12px;&quot;&gt;命令&lt;/font&gt;&lt;/div&gt;&lt;div style=&quot;font-size: 7px;&quot; align=&quot;center&quot;&gt;&lt;font style=&quot;font-size: 7px;&quot;&gt;&lt;br&gt;&lt;/font&gt;&lt;/div&gt;&lt;div style=&quot;font-size: 14px;&quot; align=&quot;left&quot;&gt;&lt;font style=&quot;font-size: 14px;&quot;&gt;&amp;nbsp;0: jal x0, X &lt;br&gt;&lt;/font&gt;&lt;/div&gt;&lt;div style=&quot;font-size: 14px;&quot; align=&quot;left&quot;&gt;&lt;font style=&quot;font-size: 14px;&quot;&gt;&amp;nbsp;4: nop&lt;br&gt;&lt;/font&gt;&lt;/div&gt;&lt;div style=&quot;font-size: 14px;&quot; align=&quot;left&quot;&gt;&lt;font style=&quot;font-size: 14px;&quot;&gt;&amp;nbsp;8: nop&lt;br&gt;&lt;/font&gt;&lt;/div&gt;&lt;div style=&quot;font-size: 14px;&quot; align=&quot;left&quot;&gt;&lt;font style=&quot;font-size: 14px;&quot;&gt;&amp;nbsp;...&lt;br&gt;&lt;/font&gt;&lt;/div&gt;&lt;div style=&quot;font-size: 14px;&quot; align=&quot;left&quot;&gt;&lt;font style=&quot;font-size: 14px;&quot;&gt;&lt;font style=&quot;font-size: 14px;&quot;&gt;&amp;nbsp;X: ジャンプ先の命令&lt;/font&gt;&lt;/font&gt;&lt;/div&gt;" style="text;html=1;align=left;verticalAlign=middle;whiteSpace=wrap;rounded=0;strokeColor=default;fillColor=default;dashed=1;" parent="1" vertex="1">
          <mxGeometry x="1100" y="439.5" width="150" height="128.99" as="geometry" />
        </mxCell>
        <mxCell id="7KpVv2kTKi0RYn0vFTpY-80" value="依存" style="endArrow=classic;html=1;rounded=0;" parent="1" edge="1">
          <mxGeometry width="50" height="50" relative="1" as="geometry">
            <mxPoint x="1100" y="790" as="sourcePoint" />
            <mxPoint x="1070" y="740" as="targetPoint" />
          </mxGeometry>
        </mxCell>
        <mxCell id="7KpVv2kTKi0RYn0vFTpY-83" value="&lt;font style=&quot;font-size: 25px;&quot;&gt;010101&lt;/font&gt;" style="shape=cube;whiteSpace=wrap;html=1;boundedLbl=1;backgroundOutline=1;darkOpacity=0.05;darkOpacity2=0.1;size=10;" parent="1" vertex="1">
          <mxGeometry x="1135" y="1029" width="120" height="60" as="geometry" />
        </mxCell>
        <mxCell id="7KpVv2kTKi0RYn0vFTpY-86" value="表示器" style="text;html=1;align=center;verticalAlign=middle;whiteSpace=wrap;rounded=0;" parent="1" vertex="1">
          <mxGeometry x="1170" y="1090" width="60" height="30" as="geometry" />
        </mxCell>
        <mxCell id="7KpVv2kTKi0RYn0vFTpY-87" value="&lt;div&gt;レジスタ&lt;/div&gt;&lt;div style=&quot;font-size: 18px;&quot;&gt;010101&lt;br&gt;&lt;/div&gt;" style="rounded=0;whiteSpace=wrap;html=1;" parent="1" vertex="1">
          <mxGeometry x="980" y="980" width="120" height="40" as="geometry" />
        </mxCell>
        <mxCell id="7KpVv2kTKi0RYn0vFTpY-96" style="edgeStyle=orthogonalEdgeStyle;rounded=0;orthogonalLoop=1;jettySize=auto;html=1;entryX=0;entryY=0.5;entryDx=0;entryDy=0;exitX=0.25;exitY=0.25;exitDx=0;exitDy=0;exitPerimeter=0;" parent="1" source="7KpVv2kTKi0RYn0vFTpY-91" target="7KpVv2kTKi0RYn0vFTpY-87" edge="1">
          <mxGeometry relative="1" as="geometry" />
        </mxCell>
        <mxCell id="7KpVv2kTKi0RYn0vFTpY-91" value="１を足す回路" style="ellipse;shape=cloud;whiteSpace=wrap;html=1;" parent="1" vertex="1">
          <mxGeometry x="915" y="1063.5" width="150" height="83" as="geometry" />
        </mxCell>
        <mxCell id="7KpVv2kTKi0RYn0vFTpY-94" value="" style="endArrow=classic;html=1;rounded=0;exitX=0.5;exitY=1;exitDx=0;exitDy=0;" parent="1" source="7KpVv2kTKi0RYn0vFTpY-87" edge="1">
          <mxGeometry width="50" height="50" relative="1" as="geometry">
            <mxPoint x="1040" y="1013" as="sourcePoint" />
            <mxPoint x="1040" y="1083" as="targetPoint" />
          </mxGeometry>
        </mxCell>
        <mxCell id="7KpVv2kTKi0RYn0vFTpY-99" style="edgeStyle=orthogonalEdgeStyle;rounded=0;orthogonalLoop=1;jettySize=auto;html=1;entryX=0;entryY=0.51;entryDx=0;entryDy=0;entryPerimeter=0;" parent="1" source="7KpVv2kTKi0RYn0vFTpY-87" target="7KpVv2kTKi0RYn0vFTpY-83" edge="1">
          <mxGeometry relative="1" as="geometry">
            <Array as="points">
              <mxPoint x="1040" y="1060" />
              <mxPoint x="1127" y="1060" />
            </Array>
          </mxGeometry>
        </mxCell>
        <mxCell id="7KpVv2kTKi0RYn0vFTpY-100" value="" style="endArrow=classic;html=1;rounded=0;entryX=0;entryY=0.5;entryDx=0;entryDy=0;" parent="1" target="7KpVv2kTKi0RYn0vFTpY-87" edge="1">
          <mxGeometry width="50" height="50" relative="1" as="geometry">
            <mxPoint x="910" y="1000" as="sourcePoint" />
            <mxPoint x="1190" y="950" as="targetPoint" />
          </mxGeometry>
        </mxCell>
        <mxCell id="7KpVv2kTKi0RYn0vFTpY-101" value="入力が1になったらレジスタを更新" style="text;html=1;align=center;verticalAlign=middle;whiteSpace=wrap;rounded=0;" parent="1" vertex="1">
          <mxGeometry x="860" y="960" width="110" height="30" as="geometry" />
        </mxCell>
        <mxCell id="7KpVv2kTKi0RYn0vFTpY-103" value="" style="shape=image;verticalLabelPosition=bottom;labelBackgroundColor=default;verticalAlign=top;aspect=fixed;imageAspect=0;image=data:image/png,iVBORw0KGgoAAAANSUhEUgAAAdsAAACWCAYAAACWyyIyAAAgAElEQVR4Xu2de3xU1bXHfwkhJCQEggJRCJKEkELkIQIW2gCCtUo11QL1FlF51AvFj1b4aK21avCqUBF78VIut0oA0Yjg215vqfIQFDUSAUGiBAiEQBCSEJKQhDzv7Jk8ZpKZzJyZ89jn5Hf+g+y99trfdWZ+s9c5e+2gBtsFXiRAAiRAAiRAApoRCKLYasaWhkmABEiABEjAToBiyxuBBEiABEiABDQmQLHVGLAZzVdVVSEjIwO33347oqOjzTgFS/mcmZmJ0tJS3HDDDZaalxknU19fj3Xr1uGWW25B7969zTgFS/m8b98+nD59GlOmTJF+XhRb6UOkv4OrV6/GO++8g+HDh6Nr1676O6DSiCUlJSgvL8c999yNlJTxKlnV10xubi4WL16MyspKDB48WN/BVR5t165ddpFauHChypb1M7dmzRps2rQJycnJiIqK0m9glUeywmdDIPnss88gPiMzZ85UmZD65ii26jM1vcXrr78eO3bsMP08miYwadIkbN261ZTzEV8k8fHxpvTdk9Nmfidz9uzZ9pWtVS4zfzZEDLKzs3H27A+YMGGi9CGh2EofIv0dnDx5MrZt22YfODExUX8HVBoxJyfHbmnWrFlYu3atSlb1NdNabM0aj4sXL9rTfeI6duwY4uLi9AWp0mjOYmvWWAgUJ06cQHV1NW6++WZ8+OGHKtGhmfYIUGx5f7Qh0CS2Zv/VGxQUZJ/bk08+ibS0NFNG2llsRQpzzpw5ppxHeno65s6daxmxFUJ7+PBhU8ZCOD1o0CCIH6Nm/iFqNvgUW7NFTAd/KbY6QPZxCIqtj6B0ata0sqXY6gTcQsNQbC0UTLWmQrFVi2Tgdii2gTNU0wLFVk2aHcsWxbZjxdun2VJsfcKkSyOKrS6YfR6EYuszKjZsRYBiy1uiDQGKrTw3BcVWnlgITyi2csXDTN5QbM0ULZ18pdjqBNqHYSi2PkDSsQnFVkfYFhuKYmuxgKoxnaZ9tuPHj8cnn3yihklDbPBtZEOwux3UKm8ji7d3169fb9/7fPToUXkAK/TEKm8jZ2Vl4dSpU0hNTVVIQP/mFFv9mUs/4sSJE+0im5KSgp07d0rvrycHKbbyhI5iK08shCdWEVtWkJLrvqI3Cgk0rWwnTJhg6kpSFFuFgdewuVXEtimNnJCQgCNHjmhITFvTVhFbsde5sLAQ48aN0xaYCta5slUBotVM8JmtPBHlM1t5YiE84TNbueJhJm8othpEqyJzL8bPL7db7ja0J95el4xoRzEj+1VT8C0WpBZjb5044zACr349EklOf9fAJUUmKbaKcGnamGKrKV7Fxim2ipGxQyMBiq0GtwLFVgOofphkGtkPaBp1sVoamRWkNLpRLGyWYqtBcCm2GkD1wyTF1g9oGnWh2GoE1k+zVnlm6+f0DelGsdUAO8VWA6h+mKTY+gFNoy4UW43A+mmWYusnuAC6UWwDgOepK8VWA6h+mKTY+gFNoy4UW43A+mmWYusnuAC6UWwDgEex1QCeiiYptirCDNAUxTZAgCp3p9iqDNQHcxRbHyApbWL2lS0rSCmNuHbt+Taydmz9scwKUv5Q067PV199hby8PEydOlW7QVSyTLH1ALKhrhKn9hzD+5vK8Pk3NcgucjTs0TMYyUPDcdOv++Hmsb3d9lZLbOvKjmPVgnys/7bBPk5weGcszxiFlKtCVAq/ezOsIKUpXkXGKbaKcGnemGKrOWJFA7CClCJc8jUuzf4WLzxajH/kte/blcndsHzF1Ujs6Sp+aohtXVk+Njx0HCu/0ldoxYwnTZqE7du3gxWkjL83KbbGx8DZA1aQkiseoj51UVERxowZI5djbrzhyrYVlBJbQYp7F5Qjt77lD7EDw5AyOgQRqEdeVgV25wBlDg1EaJ8IvLxxJIZ0b2kfqNg21J/Gxt8dw/JGoQ3tE4bl/3MNxvbXdkXbNAMWtZDnc0uxlScWwhMWtZArHmbyhmLrFK3aou/x59vO4uOLjv/sNSgCTy+/Gtf2DXVuhcLsbKTdW4IvKhz/PWxaP6z+UxyaWgUitg11Z7BxwRHDhFbMh2Irz0eYYitPLCi2csXCbN5QbJsjVovMFZlYsN5WQ9HDitU5uOc/z8Ls+yuQL1bADWFYtXU0xvR0tPBXbNsKbThWrh2BkTH6rGib5kexledjTLGVJxYUW7liYTZvKLaNEWuoz8WyiaewqdyRH5637FrcO7lrO/E8jfQ7j+Gji50wZFQYJt9xDcYl+i+2g+rP4H//dAxpHzWJvTFCy5WtXB9hiq1c8WAaWa54mMkbim1jtKoO7se/zSq1r1SDO0fglc9G4kd+LiiVrmw3fNUfJ585jEffM15oKbZyfXwptnLFg2IrVzzM5A3FtjFax9/+EtOerrb/K2rE5XhrzWCXk3qUBFWJ2IoU9D13VGP9ppY3smJs428IYHwlvrpryzRyoATV60+xVY+lGpYotmpQ7Jg2KLaNcc/d/AWmL6mx/+vKqf3w/mNxft8RisTWwyipjyThiTvc7+P12zEfO1JsfQSlQzOKrQ6QFQxBsVUAi01dCFBsG3HsWvYpFr7ueF5rhNiG9gnHvRNr8bc3HIIfHBqG//pgNK7rpf8d21RBKiUlBTt37tTfAZVGZLlGlUCqYMYq5RpZ1EKFm0FFE19++SWOHz+OO+64Q0Wr2pii2DZy/X7jF7jzOWNWtmKv7kuvDcOQHgV48bYT2JDvEP2+43ojY2WSbX+vvhcrSOnLu73RuLKVJxbCE4qtXPFgBSm54uGTN85pZL2f2a7aeo1t25DjbaySLFtRjXktRTVmpCVjUWrjniKfZhJ4I1aQCpyhWhYotmqRVMdOk9gmJCTgyJEj6hg1wIpVDiIQn4/z589j5MiRBlBUNiRXto28Kmwi94t/L7dXhvL1bWSxGn5wbR1ieoci5TexmDMlxm5NyTPboIYIvPr1SCQFNQWuDDufOYBFbzneTDYincxntso+RFq2pthqSVe5bT6zVc6MPRwEKLaNd0J91VE8e+NpvFtulzg8sPIa3D2uvX22xXjr94ewZJcj5TsjbahtBdpDBbEF6sqOYum003jnnMO5/jfGYOPSxOYKVVrfvBRbrQn7bp9i6zsrPVpSbPWgbM0xKLbNcXWtIBWe0B1vvj4MfTzstXWuoRwcGo6Xto7C8MaHq4GtbB0OFW/bg6kPVzbXYJ69dDjuuzFKl7uQYqsLZp8Godj6hEm3RhRb3VBbbiCKrVNIW9dGjhnRAyuXD8aAaGfFrW1TG/n6eXFYNq9fsyU1xNYmt/hg0SEs3tF46o/t7eS/bxmNEU4HHmh1N1JstSKr3C7FVjkzLXtQbLWka23bFNtW8XV36s+Q0eH46cBOaLCd+pOzrQI7fmjpFDOiJ9b8PdllBayO2AI1BdlYOL2w+cADvdLJFFt5PvQUW3liITyh2MoVDzN5Q7F1Ey1fz7MdnRqDZY8nIrKTqxG1xBaoxfebszB/aXVjOjkY81cMxW9TtE0nU2zl+QhTbOWJBcVWrliYzRuKrYeINdRdwNGP8/D6u6U4cLAex5qO3esVjNEpPTD97ngM7R/utrd6Yms7UMh25N7r84/ghSxHOjkkOhzpb49yOT9X7ZuOYqs2Uf/tUWz9Z6dFT65staDaMWxSbDtGnBXNkkUtFOHStDHFVlO8io2zqIViZJp22L17N8Rn5M4779R0HDWMU2zVoGgxGxRbeQJKsZUnFsITiq1c8WAFKbniQW8UEmAFKYXANGxOsdUQrh+mm9LIrCDlBzwNuuTl5aGkpATDhg3TwLq6JrmyVZenJazxma08YaTYyhML4Qmf2coVDzN5Q7E1U7R08pViqxNoH4ah2PoASccmFFsdYVtsKIqtxQKqxnQotmpQVMcGxVYdjmpZodiqRbLj2aHYdryYe50xxdYrIt0aUGx1Q+3TQBRbnzCxkRsCFFveFm0IUGzluSkotvLEQnhCsZUrHmbyhmJrpmjp5CvFVifQPgxDsfUBko5NKLY6wrbYUBRbiwVUjelQbNWgqI4Niq06HNWyQrFVi6Q6durqHOd+d+rUqmauOuZVtUKxVRWnNYyxqIU8caTYyhML4QmLWsgVDxa1kCse9EYhAauJbWJiImJjYxVSkKP5pUuXIL5QxLVmzRrMmTNHDscUepGeno65c+fae4miKWa9jhw5AlFI4YorrsDp06fNOg0MGjQIOTk5MPNnQ8AvLS1FZGQktm/fLn0suLKVPkT6O9hUQequu+7CK6+8or8DKo0YFBSkkiU5zLz22muYMWOGHM4o9MJZbBV2lbJ5UlISvvvuOyl988WpJrH1pa0Z2mzdulX6H3EUWzPcSTr7KFKXTz31FITYmnkVIp49W+E6efIkoqKisGfPHtNOZ9u2bXjmmWdM63+T4yLTIOLx4IMPYuHChaadj3j2LFboVrhSUlKQlpYm/VQottKHiA6SAAmQAAmYnQDF1uwRpP8kQAIkQALSE6DYSh8iOkgCJEACJGB2AhRbs0eQ/pMACZAACUhPgGIrfYjoIAmQAAmQgNkJUGzNHkEN/G9oaEBlZSXCw8Nhte0zGuDS3GR1dTVETLp06aL5WBzAO4GKigqEhYUhODjYe2O20JRAbW0tRBUpM3w2KLaa3grmNC6+TF588UV7EYJevXqZcxIW8lrsISwuLsb06dMtNCtzTqW+vh7PPfccZs6ciX79+plzEhbymhWkLBTMjjgViq1cUafYyhMPiq08sRCeUGzlige9UUhApGYOHDiAwYMH29NlvIwlkJ+fD1FMISEhwVhHOLo9nb9v3z57ucOIiAgSMZjAmTNnUFZWZi87KfvFNLLsEaJ/JEACJEACpidAsTV9CDkBEiABEiAB2QlQbGWPEP0jARIgARIwPQGKrelDyAmQAAmQAAnIToBiK3uE6B8JkAAJkIDpCVBsTR9CToAESIAESEB2AhRb2SNkgH9iL2FZWSm6dYtilRwD+Lcesqqqyl4lh1tNjA+G2PpTWnrBFotIhISEGO9QB/dAbImrqalBZGSk9CQottKHSH8HWdRCf+btjciiFvLEg0Ut5ImF8IRFLeSKB71RSIBiqxCYxs0pthoDVmCeYqsAlg5NKbY6QOYQ2hEQKcvvvvsOAwcONEWBb+1IyGFZVMkRhxH0799fDoc6sBcijXzo0CHExcWha9euHZiEHFM/d+4cysvL7fGQ/WIaWfYI0T8SIAESIAHTE6DYmj6EnAAJkAAJkIDsBCi2skeI/pEACZAACZieAMXW9CHkBEjAPwJpaWnIyMjwr7PCXuIkqYKCAvv2JTM/6xTbTEpLS+1bTbp37+6RwurVqzFp0iSFlNjcygQotlaOLudGAu0QCAoKIh+NCDz55JMQP2Z4kUATAYot7wUS6IAEcnNzER8fb5+5WIHp8abz/v37MWDAAFxxxRWmJS7efM3JyUFUVJTbeYitKOLvgqnYssWLBCi2vAc8EhB7CQsLC3HZZZehU6dOJGUwAfEFX19fZ/uC95y2VOqiWHUtXrzY3k1sZ+HlGwHBSmw3iY6ORufOndt0auIqDjM/fPiwb0bZym8CoiaAqCIl4iH7xZWt7BEywD8WtTAAejtDalHUYvLkydi2bRsoCspi7a2ohWAq2IpLxI3PbZXxVdqaRS2UEmN7qQhQbKUKh/1Lu7i4GNOnT1fFMecUMp8tKkPqTWyd2c6aNQtr165VNgBbKyJAsVWEi41lIyAqSB09etT+fC00NFQ29zqcP2fPnrUXW+/bt68qc3dOIXP1pRypSA+LZ9xhYWFuOzNroJypvz2KioogFgexsbH+mtCtH9PIuqHmQCQgB4HZs2dj3bp1TCFrFI709HTMnTuXqWSN+JrVLMXWrJGj3yTgJ4GmLT9MIfsJ0Es3pum14Wp2qxRbs0eQ/pOAAgLOQrBmzRrMmTNHQW829ZUAU8m+kuo47Si2HSfWnCkJ2AstcMuP9jcCn4trz9hsI1BszRYx+ksCARBoSiGz6EIAEH3oylSyD5A6WBOKbQcLOKfbcQlQAPSNfVMqmT9s9OUu62gdWmx3LfsUC193VM+56aEkPD2jt6xx0tUvsfVHFI2PiYlBSEiIrmNzsLYESksv2A6Pr8Hll18eEB6mkAPC19w5Pz8fvXv39rotjtWk1OHdnpWysjJUVVWhV69e2g8W4AgUW4ptm1uIRS0C/FSp3F2tohZ8aSfwwHgrauE8AqtJBc7bmwUWtfBGSJK/c2XrPhAUW0lu0EY31BBbppDViakSsWU1KXWYt2eFYqs9Y1VGoNi6xyi+UPLy8uwVi9wVW1cFPo34TECUahQVpPr06eNzn9YN+Xas3+jadDx+/Lj9xJ8uXbp4NcpsgldEATU4f/68PY1shpOkmEZmGjmgm52dzUGAVaOMiROrSRnDXcZRKbYUWxnvS/qkMgFWjVIZqI/mmL73EVQHaEaxpdh2gNu8Y0/R+UUdVo3S/15gKll/5jKOqKHYnkb6ncewKtuxtWb648l45PaeXhmc/yQLv1pUgTJbt/CE7nhz0zD0CWrdrRYX8wuw/eOz+OT9Kpw4V49jF1vaJPYPwdUpUUidHo+h/cM9juntma23v7c2rLR9TUEu3ttYhI+3V+L7U7DPOcj2GOjqgWEYP+Vy/PJXsejZhVtvvN40bNAuAW75MfYG4fNyY/nLMrqGYgsU/ONL3PpEtX2u3Yb2xNvrkhHdRjidUVTio8VZePQ9h0BPfiABf5l1pQururJ8vLkkD6u31NnFyds1OjUGyx5PRGSnti29iaO3v/srtg11hfh4yWE8+077cwjqEoy7HonDA7e5MvA2Z/6dBJwJsGqUsfcDU8nG8pdldE3FtrYoG3+4uRA7a8V0Q/Dc+2MxqZ/nqddX5SBtwhl8WCPadMaKLT/GT5z2KteV5eKFO/PxRn6LjV69QjAuJQx9bCvCBtQj59MKZNn+7izE18+Lw7J5bQf2Jqbe/u6P2DbUn8bG3x3D8q9afin0iA7BhOsdcygpqMKer2pdVuo32/x/3OY/T5aV5WNjHj/4RS9HrFhNSo44GOmFpmILVOJfT2ThT//wvFJ1nnzB/+3BrY9V2v+rx3WX473/HoyI5ga1yFyZiQXpdfb/CQrtjCUbhuGGxK5t+NWVnMSGR05gZaOgBXeOwCufjcSPWmVkvYmpt78rF9sy7HzmABa95ZhDcNcQ/GFZEqaNdU2vN9RdwMG3cvDUc5XIrbe3xPwVQ/FbW2pcj0tUkBJbf/r168etP3oA9zKGOCC7trbWr60/TCGrH0DxA0ZsNfF0eLy7EVlNSv04CIvc+uPE1bdnsKJDMd76/SEs2eUQ5tlLrsV9P28R0vqqo3j2xtN4t9xhfPbS4bjvRs/i03pV/Zd3xmLyVa4B9yam3v6uVGwr9+/Hb+aWIt8moOLHwtI3Rtl88vRMthbfb87C/KXV9lV6aJ9uePWDEYjX4REui1po88Xgr9VAilrw5Rx/qbvvp6SohbMFVpNSNw5N1ljUwolrQ/1xvDglHxvOChENxlNv/ARTEtuCdxbH4NBwvLR1FIa3LGtRfSIHq1YUYW9uHc6WRmLVx8MR1+7z33ykTz+OVUcd4v3AyhTcPc5IsXV9Hu0pte3qYes5jLXNQXu1pdhq88Xgr1V/xZYpZH+Je+7nr9iympT6sRAWKbYuXG3p3xW29O96R+r0p7bnj//p5vlp7uYvMH2J/WEtEqb2wxuPxQUYnbPIuPcwXsiSQ2wb6nOxbOIpbCpv/0dH60lnrtzdnDofMXMAXl4UGyAX791FGvnMmTP2tCUPIvDOS+sWFy6U2NLIdbjssssUDcW3YBXh8rnxqVOn7IXvQ0OVvUXBLIPPiH1uyIMIWqG6dOwA5vy6BN/b0qchPbrh9a0jWq1KnbcJBePhl67DHdcqXcHVorKsHD8cL8LBrBJ8/s8K7M5peVHK6JVtdf63uO/2Yuy1/+YIxuRfhiOha7tLczvF4pwKvLnH/uAW0eN6492VSU7PsX2+J9mwAxJg1Si5gs5Uslzx0NsbjV+QappO+2JafeIA5k0rwQGbELkXY1csDXWVKDiUj893luPQwQrknKrHycZ9qp4AGi22FZl7MX5+4wNnP6Ps2/YpP42zm+UIsGqUXCFlWl+ueOjtjU5iCziniUfMiMXLDw1onmt2+m7ctdKRZna3t7YFSjUOf3AAS5dV4BsvuhU7sDOiz9fgmyJHb4qt3rcWxzOSAKtGGUnf89hMJcsZFz280k1sXV6ActmKcxIrbjrR+AJVe3txy7Br+QE8keFaCEJUXBoSE4KB14YhfmAkrr4mGvFxPdAttFiqZ7bOK9ughgi8+vVIJHnPIutxD3AMCxLglh85g8rn6HLGRQ+vdBPb1ntuH1jpeLPWeTtM2721LQiqDu7HXbNKG/edAkOv74lH/xiPQb08lWM8g4y7j+CFg3q9IFWIt+Z/hyWZjvFueigJT8/o3TwB5+fWaAjDqq2jMcZ79Uo97gGOYUECrBolZ1CZSpYzLnp4paPY2jYgO9U9drxxHOvypvKMtKFYlNrDzbxdt8348uyyof4onhln25frqBapQxrZdZtOa7F1rY4FzFt2Le6d3LYghx5B5xjWJsAvdLnjy2pScsdHK+90FVvn7S+Oqk49seUWxx5cd3trWybtuo2ntZC5g1NieyFp1oJyewEJNcR24K/7YeMfPW9Hcn7Jy93K1laIER8sOojFOxwr3/ZW8S3zKbNV4NqPv34ZhN5dgzF05lV4aKr2dZJFtaKjR48iLi5O8fYGrW7Ujmz33LlzqK6uRt++fX3CwBSyT5j8atTQ0IDDhw/jqquuUlRBynkwVpPyC73bTqK6mqgLEBur/ZbIQL3WVWwB5z23wfjd/ZH44G+OikoDplyJjKcTPNT/dRXb1i9YtYbgroayPy9IHX/7S0x72rE0Fm9JZ/zLUwUn1zKM7sXWdWUv2tz6UCKenBHjMYbiB8O9th8MjpKN+q2GWdQi0I+Vuv2VFrXgSzjq8ne25m9RC2cb3AKkXnxY1KIdli7PLpvbed9b61zcQexTvX9FMu5JaZ1yrkbhwRy88Ggx/mXbCuR8zV8x1lZb2HXvrrdyjK1Xq8N/EYMVaa4nCDVU2w5OeO4Ynm91go/71fdZ23Pdw83PdYV/tz0wAA/eFdvqVKJqnPz0WzzxSDkOOEpFI2bE5diwZrCXU5PUuYkptupwVMuKErFlClkt6u7tqCG2rCalXowotu2ydD3nVjRtf9XoMFZb9D3+fNtZfOx0bm2vXp0xcXIXuwDVlVRjd2Y1shu3+gSHd0bqqDq8u8uxLHQnft7E1lYSw+XgAGEn2JbO/dn4rrgqGvjhWAV2ZtbjvDiH1lbr+LEHOuPp5ys8jif+IFbdf707HxtPtEASNn88uguuvrIT6qvrkLmjsnnLkmgV2icCL28ciSHd1btJ27MkvlAKCwvtFYs6dXJzNqE+bnCURgIXL15EXV0toqK83wB821Xb20akkUVaPzo6OqBDOph9UCdOYmFQU1ON7t3dveujzhhqWdE5jexw23nPrfi3pxKOrSd5wVbI/+H7S/G1lz22195ge1P50SR0+WJf8ylCvW6MwXtLE13S1N7F1nZsn+1IvHcePY5nP3LsA3Z3hfYJw9K/Dceowm+bC1e091xZyZm8VyZ3w/IVVyOxp9KKWmrdIrRjJgKsGmWOaDGVbI44qemlIWLb+kSe/3hzLG6O921aIm27I+MUPny/CvtOOFaV4krs3xmjUqNxy8/jkNTXUbO0puBbLEh1lEgMDg3D37eMxginxYEvYuuwXo2inBN4e3URPsqsaT5r9kfJYfjZ1BhMvdWRBnbeS+v9Ja5alOefxD83F2Hrzks4ktcyl759QzDqukhMmt4XP0ni/iDf7gy2EgRYNcoc9wHT/eaIk5peGiK2ak6AtkiABBwEWDXKXHcCU8nmileg3lJsAyXI/iQgCQFu+ZEkED66wefrPoKySDOKrUUCyWmQAKtGmeseYCrZXPEK1FuKbaAE2Z8EJCDAL24JguCHC6wm5Qc0k3ah2Jo0cFq6LSpIZWdnY9CgQejSxXbSAy9DCRQUFNgrSImqRZ4uppD1CZHY+nPw4EEkJCSga9fAy62ymlRgcTt79izKy8sRH+/jG7aBDRdQb4ptQPis2ZlFLeSKqy9FLfiyjT4xU6OohbOn3AIUWNxY1CIwfuxtMAGKrcEBaDW8N7FlClm/eKkttqwmFVjsKLaB8WNvgwmIL5SyslJ06xaF4OBgg73h8FVVVRAx8ZS25Fut+t0jIo1cWnoBkZHdVKuuxqyE//ETn426ujpERET4b0Snnkwj6wSaw5CAVgRYNUorsvrYZSpZH85Gj0KxNToCHJ8EAiTAqlEBAjS4Ox8DGBwAnYan2OoE2mzDiDM7rXDl5eWhf//+pp9KaWmp/WCI1tf27dsxd+5c+3+vWbMGc+bMMf1cO+IEnFPJW7Zs0QVBTU2NLuNoPYhIIft61rPWvrRnn2JrJH1Jx3744Yfx/PPPS+od3fJEQDxP5GVOAs7P3c05A2O9Fi8RTpo0yVgnvIxOsZU6PMY4N2vWLKxfv96YwTmqXwTEF434wuFlTgLOqWRzzsBYrzdv3oxp06YZ6wTFVmr+0jqXkZEhrW++OibOHRVfYmPGjPG1i5TtRIERsR0rOTnZo38DBgyQ/pe9lHAlcio9PV03by5cuIDi4mIMHjxYtzG1GigyMhKpqalamVfNLle2qqG0jiFRQeqbb77BkCFDEBYWZp2JmXQm+fn5uHTpkr1qES9jCYhU/d69e5GUlGSK7SbG0tJ+dFFdrayszF7tTvaLYit7hAzwj0UtDIDezpDeilrI5a21vVG7qIW1aWk/Oxa10J4xR9CQAMVWQ7h+mKbY+gFNoy4UW43A+mmWYusnOHaTg4BIlYnKLCKF3LSHUw7POqYXYouG+JLnoRByxAXEr28AAADjSURBVL+ystIeC1ZXMz4eZvpsMI1s/P1CD0iABEiABCxOgGJr8QBzeiRAAiRAAsYToNgaHwN6QAIkQAIkYHECFFuLB5jTIwESIAESMJ4Axdb4GNADEiABEiABixOg2Fo8wJweCZAACZCA8QQotsbHgB6QAAmQAAlYnADF1uIB5vRIgARIgASMJ0CxNT4G9IAESIAESMDiBCi2Fg8wp0cCJEACJGA8AYqt8TGgByRAAiRAAhYnQLG1eIA5PRIgARIgAeMJUGyNjwE9IAESIAESsDgBiq3FA8zpkQAJkAAJGE/g/wFZtYWJbt8TrwAAAABJRU5ErkJggg==;" parent="1" vertex="1">
          <mxGeometry x="911.16" y="1264" width="338.84" height="107" as="geometry" />
        </mxCell>
        <mxCell id="7KpVv2kTKi0RYn0vFTpY-106" value="0" style="rounded=0;whiteSpace=wrap;html=1;strokeWidth=0.6;verticalAlign=middle;fontFamily=Helvetica;" parent="1" vertex="1">
          <mxGeometry x="960" y="1467" width="20" height="23" as="geometry" />
        </mxCell>
        <mxCell id="7KpVv2kTKi0RYn0vFTpY-107" value="1" style="rounded=0;whiteSpace=wrap;html=1;strokeWidth=0.6;verticalAlign=middle;fontFamily=Helvetica;" parent="1" vertex="1">
          <mxGeometry x="980" y="1467" width="20" height="23" as="geometry" />
        </mxCell>
        <mxCell id="7KpVv2kTKi0RYn0vFTpY-108" value="0" style="rounded=0;whiteSpace=wrap;html=1;strokeWidth=0.6;verticalAlign=middle;fontFamily=Helvetica;" parent="1" vertex="1">
          <mxGeometry x="1000" y="1467" width="20" height="23" as="geometry" />
        </mxCell>
        <mxCell id="7KpVv2kTKi0RYn0vFTpY-109" value="1" style="rounded=0;whiteSpace=wrap;html=1;strokeWidth=0.6;verticalAlign=middle;fontFamily=Helvetica;" parent="1" vertex="1">
          <mxGeometry x="1020" y="1467" width="20" height="23" as="geometry" />
        </mxCell>
        <mxCell id="7KpVv2kTKi0RYn0vFTpY-110" value="0" style="rounded=0;whiteSpace=wrap;html=1;strokeWidth=0.6;verticalAlign=middle;fontFamily=Helvetica;" parent="1" vertex="1">
          <mxGeometry x="1040" y="1467" width="20" height="23" as="geometry" />
        </mxCell>
        <mxCell id="7KpVv2kTKi0RYn0vFTpY-111" value="0" style="rounded=0;whiteSpace=wrap;html=1;strokeWidth=0.6;verticalAlign=middle;fontFamily=Helvetica;" parent="1" vertex="1">
          <mxGeometry x="1060" y="1467" width="20" height="23" as="geometry" />
        </mxCell>
        <mxCell id="7KpVv2kTKi0RYn0vFTpY-112" value="1" style="rounded=0;whiteSpace=wrap;html=1;strokeWidth=0.6;verticalAlign=middle;fontFamily=Helvetica;" parent="1" vertex="1">
          <mxGeometry x="1080" y="1467" width="20" height="23" as="geometry" />
        </mxCell>
        <mxCell id="7KpVv2kTKi0RYn0vFTpY-113" value="1" style="rounded=0;whiteSpace=wrap;html=1;strokeWidth=0.6;verticalAlign=middle;fontFamily=Helvetica;" parent="1" vertex="1">
          <mxGeometry x="1100" y="1467" width="20" height="23" as="geometry" />
        </mxCell>
        <mxCell id="7KpVv2kTKi0RYn0vFTpY-114" value="let v : logic&amp;lt;&lt;font face=&quot;Helvetica&quot;&gt;8&lt;/font&gt;&amp;gt; = &lt;font face=&quot;Helvetica&quot;&gt;8&#39;b01010011&lt;/font&gt;;" style="text;html=1;align=center;verticalAlign=middle;whiteSpace=wrap;rounded=0;fontFamily=Georgia;" parent="1" vertex="1">
          <mxGeometry x="945" y="1437" width="190" height="30" as="geometry" />
        </mxCell>
        <mxCell id="7KpVv2kTKi0RYn0vFTpY-115" value="v[&lt;font face=&quot;Helvetica&quot;&gt;4&lt;/font&gt;:&lt;font face=&quot;Helvetica&quot;&gt;2&lt;/font&gt;]" style="endArrow=classic;startArrow=classic;html=1;rounded=0;endSize=1;startSize=1;fontFamily=Georgia;" parent="1" edge="1">
          <mxGeometry width="50" height="50" relative="1" as="geometry">
            <mxPoint x="1020" y="1498" as="sourcePoint" />
            <mxPoint x="1080" y="1498" as="targetPoint" />
            <mxPoint as="offset" />
          </mxGeometry>
        </mxCell>
        <mxCell id="7KpVv2kTKi0RYn0vFTpY-117" value="v[&lt;font face=&quot;Helvetica&quot;&gt;6&lt;/font&gt;]" style="endArrow=classic;html=1;rounded=0;endSize=1;startSize=1;fontFamily=Georgia;" parent="1" edge="1">
          <mxGeometry x="-1" width="50" height="50" relative="1" as="geometry">
            <mxPoint x="990" y="1510" as="sourcePoint" />
            <mxPoint x="990" y="1490" as="targetPoint" />
            <mxPoint as="offset" />
          </mxGeometry>
        </mxCell>
        <mxCell id="7KpVv2kTKi0RYn0vFTpY-119" value="&lt;div style=&quot;font-size: 10px;&quot;&gt;&lt;font style=&quot;font-size: 10px;&quot;&gt;v[&lt;font face=&quot;Helvetica&quot;&gt;7&lt;/font&gt;]&lt;/font&gt;&lt;/div&gt;&lt;div style=&quot;font-size: 10px;&quot;&gt;&lt;font style=&quot;font-size: 10px;&quot;&gt;&lt;font style=&quot;font-size: 10px;&quot;&gt;v[msb]&lt;/font&gt;&lt;br&gt;&lt;/font&gt;&lt;/div&gt;" style="endArrow=classic;html=1;rounded=0;endSize=1;startSize=1;fontFamily=Georgia;" parent="1" edge="1">
          <mxGeometry x="-1" width="50" height="50" relative="1" as="geometry">
            <mxPoint x="970" y="1530" as="sourcePoint" />
            <mxPoint x="969.71" y="1490" as="targetPoint" />
            <mxPoint as="offset" />
          </mxGeometry>
        </mxCell>
        <mxCell id="7KpVv2kTKi0RYn0vFTpY-120" value="&lt;div style=&quot;font-size: 10px;&quot;&gt;&lt;font style=&quot;font-size: 10px;&quot;&gt;v[&lt;font face=&quot;Helvetica&quot;&gt;0&lt;/font&gt;]&lt;/font&gt;&lt;/div&gt;&lt;div style=&quot;font-size: 10px;&quot;&gt;&lt;font style=&quot;font-size: 10px;&quot;&gt;&lt;font style=&quot;font-size: 10px;&quot;&gt;v[lsb]&lt;/font&gt;&lt;br&gt;&lt;/font&gt;&lt;/div&gt;" style="endArrow=classic;html=1;rounded=0;endSize=1;startSize=1;fontFamily=Georgia;" parent="1" edge="1">
          <mxGeometry x="-1" width="50" height="50" relative="1" as="geometry">
            <mxPoint x="1110.15" y="1530" as="sourcePoint" />
            <mxPoint x="1109.8600000000001" y="1490" as="targetPoint" />
            <mxPoint as="offset" />
          </mxGeometry>
        </mxCell>
        <mxCell id="7KpVv2kTKi0RYn0vFTpY-126" value="2. 命令をデコードする" style="edgeStyle=orthogonalEdgeStyle;rounded=0;orthogonalLoop=1;jettySize=auto;html=1;entryX=0.5;entryY=0;entryDx=0;entryDy=0;fontFamily=Garamond;" parent="1" source="7KpVv2kTKi0RYn0vFTpY-124" target="7KpVv2kTKi0RYn0vFTpY-127" edge="1">
          <mxGeometry relative="1" as="geometry">
            <mxPoint x="84" y="1500" as="targetPoint" />
            <Array as="points">
              <mxPoint x="227" y="1470" />
            </Array>
          </mxGeometry>
        </mxCell>
        <mxCell id="7KpVv2kTKi0RYn0vFTpY-124" value="&lt;div&gt;メモリ&lt;/div&gt;" style="rounded=0;whiteSpace=wrap;html=1;fontFamily=Garamond;" parent="1" vertex="1">
          <mxGeometry x="177" y="1410" width="257" height="40" as="geometry" />
        </mxCell>
        <mxCell id="7KpVv2kTKi0RYn0vFTpY-139" value="&lt;div&gt;制御&lt;/div&gt;&lt;div&gt;信号&lt;/div&gt;" style="edgeStyle=orthogonalEdgeStyle;rounded=0;orthogonalLoop=1;jettySize=auto;html=1;entryX=1;entryY=0.5;entryDx=0;entryDy=0;fontFamily=Garamond;" parent="1" source="7KpVv2kTKi0RYn0vFTpY-127" target="7KpVv2kTKi0RYn0vFTpY-129" edge="1">
          <mxGeometry x="-0.0564" relative="1" as="geometry">
            <Array as="points">
              <mxPoint x="124" y="1525" />
              <mxPoint x="124" y="1660" />
            </Array>
            <mxPoint as="offset" />
          </mxGeometry>
        </mxCell>
        <mxCell id="7KpVv2kTKi0RYn0vFTpY-127" value="&lt;div&gt;命令デコーダ&lt;/div&gt;" style="rounded=0;whiteSpace=wrap;html=1;fontFamily=Garamond;" parent="1" vertex="1">
          <mxGeometry x="174" y="1510" width="105" height="30" as="geometry" />
        </mxCell>
        <mxCell id="7KpVv2kTKi0RYn0vFTpY-129" value="" style="shape=loopLimit;whiteSpace=wrap;html=1;rotation=-180;fontFamily=Garamond;" parent="1" vertex="1">
          <mxGeometry x="182.75" y="1640" width="87.5" height="40" as="geometry" />
        </mxCell>
        <mxCell id="7KpVv2kTKi0RYn0vFTpY-153" value="6.計算結果を格納" style="edgeStyle=orthogonalEdgeStyle;rounded=0;orthogonalLoop=1;jettySize=auto;html=1;entryX=0.604;entryY=1.002;entryDx=0;entryDy=0;entryPerimeter=0;exitX=0.5;exitY=0;exitDx=0;exitDy=0;fontFamily=Garamond;" parent="1" source="7KpVv2kTKi0RYn0vFTpY-129" target="7KpVv2kTKi0RYn0vFTpY-143" edge="1">
          <mxGeometry x="-0.3076" relative="1" as="geometry">
            <Array as="points">
              <mxPoint x="227" y="1700" />
              <mxPoint x="320" y="1700" />
              <mxPoint x="320" y="1590" />
            </Array>
            <mxPoint as="offset" />
          </mxGeometry>
        </mxCell>
        <mxCell id="7KpVv2kTKi0RYn0vFTpY-138" value="4.ALUで計算" style="text;html=1;align=center;verticalAlign=middle;whiteSpace=wrap;rounded=0;fontFamily=Garamond;" parent="1" vertex="1">
          <mxGeometry x="185.5" y="1640" width="82" height="35" as="geometry" />
        </mxCell>
        <mxCell id="7KpVv2kTKi0RYn0vFTpY-146" style="edgeStyle=orthogonalEdgeStyle;rounded=0;orthogonalLoop=1;jettySize=auto;html=1;entryX=0.75;entryY=0;entryDx=0;entryDy=0;fontFamily=Garamond;" parent="1" source="7KpVv2kTKi0RYn0vFTpY-143" target="7KpVv2kTKi0RYn0vFTpY-138" edge="1">
          <mxGeometry relative="1" as="geometry">
            <Array as="points">
              <mxPoint x="247" y="1610" />
              <mxPoint x="247" y="1610" />
            </Array>
          </mxGeometry>
        </mxCell>
        <mxCell id="7KpVv2kTKi0RYn0vFTpY-152" value="&lt;div&gt;書き込む&lt;/div&gt;&lt;div&gt;データ&lt;/div&gt;" style="edgeStyle=orthogonalEdgeStyle;rounded=0;orthogonalLoop=1;jettySize=auto;html=1;entryX=0.5;entryY=0;entryDx=0;entryDy=0;fontFamily=Garamond;" parent="1" source="7KpVv2kTKi0RYn0vFTpY-143" target="7KpVv2kTKi0RYn0vFTpY-148" edge="1">
          <mxGeometry relative="1" as="geometry">
            <Array as="points">
              <mxPoint x="364" y="1630" />
              <mxPoint x="364" y="1630" />
            </Array>
          </mxGeometry>
        </mxCell>
        <mxCell id="7KpVv2kTKi0RYn0vFTpY-143" value="&lt;div&gt;レジスタ&lt;/div&gt;" style="rounded=0;whiteSpace=wrap;html=1;fontFamily=Garamond;" parent="1" vertex="1">
          <mxGeometry x="229" y="1560" width="150" height="30" as="geometry" />
        </mxCell>
        <mxCell id="7KpVv2kTKi0RYn0vFTpY-147" style="edgeStyle=orthogonalEdgeStyle;rounded=0;orthogonalLoop=1;jettySize=auto;html=1;entryX=0.112;entryY=0.038;entryDx=0;entryDy=0;entryPerimeter=0;fontFamily=Garamond;" parent="1" source="7KpVv2kTKi0RYn0vFTpY-127" target="7KpVv2kTKi0RYn0vFTpY-143" edge="1">
          <mxGeometry relative="1" as="geometry">
            <Array as="points">
              <mxPoint x="246" y="1550" />
              <mxPoint x="246" y="1550" />
            </Array>
          </mxGeometry>
        </mxCell>
        <mxCell id="7KpVv2kTKi0RYn0vFTpY-154" value="&lt;div&gt;5.メモリ書込/読込&lt;/div&gt;" style="edgeStyle=orthogonalEdgeStyle;rounded=0;orthogonalLoop=1;jettySize=auto;html=1;entryX=1;entryY=0.25;entryDx=0;entryDy=0;fontFamily=Garamond;" parent="1" source="7KpVv2kTKi0RYn0vFTpY-148" target="7KpVv2kTKi0RYn0vFTpY-124" edge="1">
          <mxGeometry x="-0.2077" y="20" relative="1" as="geometry">
            <Array as="points">
              <mxPoint x="504" y="1729" />
              <mxPoint x="504" y="1420" />
            </Array>
            <mxPoint as="offset" />
          </mxGeometry>
        </mxCell>
        <mxCell id="7KpVv2kTKi0RYn0vFTpY-148" value="&lt;div&gt;メモリ操作器&lt;/div&gt;" style="rounded=1;whiteSpace=wrap;html=1;fontFamily=Garamond;" parent="1" vertex="1">
          <mxGeometry x="325" y="1714" width="77.75" height="30" as="geometry" />
        </mxCell>
        <mxCell id="7KpVv2kTKi0RYn0vFTpY-155" style="edgeStyle=orthogonalEdgeStyle;rounded=0;orthogonalLoop=1;jettySize=auto;html=1;entryX=0.648;entryY=1.007;entryDx=0;entryDy=0;entryPerimeter=0;fontFamily=Garamond;" parent="1" source="7KpVv2kTKi0RYn0vFTpY-33" target="7KpVv2kTKi0RYn0vFTpY-124" edge="1">
          <mxGeometry relative="1" as="geometry" />
        </mxCell>
        <mxCell id="7KpVv2kTKi0RYn0vFTpY-156" value="1. 命令フェッチ" style="edgeLabel;html=1;align=center;verticalAlign=middle;resizable=0;points=[];fontFamily=Garamond;" parent="7KpVv2kTKi0RYn0vFTpY-155" vertex="1" connectable="0">
          <mxGeometry x="0.0322" y="1" relative="1" as="geometry">
            <mxPoint x="1" as="offset" />
          </mxGeometry>
        </mxCell>
        <mxCell id="7KpVv2kTKi0RYn0vFTpY-157" value="6.読込データを格納" style="edgeStyle=orthogonalEdgeStyle;rounded=0;orthogonalLoop=1;jettySize=auto;html=1;entryX=1;entryY=0.5;entryDx=0;entryDy=0;fontFamily=Garamond;" parent="1" source="7KpVv2kTKi0RYn0vFTpY-124" target="7KpVv2kTKi0RYn0vFTpY-143" edge="1">
          <mxGeometry x="-0.091" relative="1" as="geometry">
            <Array as="points">
              <mxPoint x="444" y="1440" />
              <mxPoint x="444" y="1575" />
            </Array>
            <mxPoint as="offset" />
          </mxGeometry>
        </mxCell>
        <mxCell id="7KpVv2kTKi0RYn0vFTpY-136" value="3. 計算で使用するデータの取得" style="edgeStyle=orthogonalEdgeStyle;rounded=0;orthogonalLoop=1;jettySize=auto;html=1;entryX=0.75;entryY=1;entryDx=0;entryDy=0;exitX=0.293;exitY=1.057;exitDx=0;exitDy=0;exitPerimeter=0;fontFamily=Garamond;" parent="1" source="7KpVv2kTKi0RYn0vFTpY-127" target="7KpVv2kTKi0RYn0vFTpY-129" edge="1">
          <mxGeometry x="0.3738" y="19" relative="1" as="geometry">
            <mxPoint x="204.60000000000014" y="1600" as="sourcePoint" />
            <Array as="points" />
            <mxPoint x="1" y="1" as="offset" />
          </mxGeometry>
        </mxCell>
        <mxCell id="TDS3gWY0blJskkFoiAuT-24" value="&lt;p style=&quot;line-height: 100%;&quot;&gt;&lt;font face=&quot;Times New Roman&quot; style=&quot;font-size: 10px;&quot;&gt;v[2]&lt;/font&gt;&lt;/p&gt;" style="rounded=0;whiteSpace=wrap;html=1;strokeWidth=0.4;verticalAlign=middle;fontFamily=Georgia;spacingBottom=3;" vertex="1" parent="1">
          <mxGeometry x="1133" y="1678" width="140" height="15" as="geometry" />
        </mxCell>
        <mxCell id="TDS3gWY0blJskkFoiAuT-37" value="&lt;p style=&quot;line-height: 100%;&quot;&gt;&lt;font face=&quot;Times New Roman&quot; style=&quot;font-size: 10px;&quot;&gt;v[2][0]&lt;/font&gt;&lt;/p&gt;" style="rounded=0;whiteSpace=wrap;html=1;strokeWidth=0.4;verticalAlign=middle;fontFamily=Helvetica;spacingBottom=3;" vertex="1" parent="1">
          <mxGeometry x="1238" y="1693" width="35" height="15" as="geometry" />
        </mxCell>
        <mxCell id="TDS3gWY0blJskkFoiAuT-44" value="&lt;p style=&quot;line-height: 100%;&quot;&gt;&lt;/p&gt;&lt;div style=&quot;line-height: 100%;&quot; align=&quot;center&quot;&gt;&lt;font face=&quot;Times New Roman&quot; style=&quot;font-size: 10px;&quot;&gt;v[2][1]&lt;/font&gt;&lt;/div&gt;&lt;p&gt;&lt;/p&gt;" style="rounded=0;whiteSpace=wrap;html=1;strokeWidth=0.4;verticalAlign=middle;fontFamily=Helvetica;align=center;spacingBottom=3;" vertex="1" parent="1">
          <mxGeometry x="1203" y="1693" width="35" height="15" as="geometry" />
        </mxCell>
        <mxCell id="TDS3gWY0blJskkFoiAuT-45" value="&lt;p style=&quot;line-height: 90%;&quot;&gt;&lt;font face=&quot;Times New Roman&quot; style=&quot;font-size: 10px;&quot;&gt;v[2][2]&lt;/font&gt;&lt;/p&gt;" style="rounded=0;whiteSpace=wrap;html=1;strokeWidth=0.4;verticalAlign=middle;fontFamily=Helvetica;spacingBottom=3;" vertex="1" parent="1">
          <mxGeometry x="1168" y="1693" width="35" height="15" as="geometry" />
        </mxCell>
        <mxCell id="TDS3gWY0blJskkFoiAuT-46" value="&lt;p style=&quot;line-height: 100%;&quot;&gt;&lt;font face=&quot;Times New Roman&quot; style=&quot;font-size: 10px;&quot;&gt;v[2][3]&lt;/font&gt;&lt;/p&gt;" style="rounded=0;whiteSpace=wrap;html=1;strokeWidth=0.4;verticalAlign=middle;fontFamily=Helvetica;spacingBottom=3;" vertex="1" parent="1">
          <mxGeometry x="1133" y="1693" width="35" height="15" as="geometry" />
        </mxCell>
        <mxCell id="TDS3gWY0blJskkFoiAuT-52" value="&lt;p style=&quot;line-height: 100%;&quot;&gt;&lt;font face=&quot;Times New Roman&quot; style=&quot;font-size: 10px;&quot;&gt;v[1]&lt;/font&gt;&lt;/p&gt;" style="rounded=0;whiteSpace=wrap;html=1;strokeWidth=0.4;verticalAlign=middle;fontFamily=Georgia;spacingBottom=3;" vertex="1" parent="1">
          <mxGeometry x="1273" y="1678" width="140" height="15" as="geometry" />
        </mxCell>
        <mxCell id="TDS3gWY0blJskkFoiAuT-53" value="&lt;p style=&quot;line-height: 100%;&quot;&gt;&lt;font face=&quot;Times New Roman&quot; style=&quot;font-size: 10px;&quot;&gt;v[1][0]&lt;/font&gt;&lt;/p&gt;" style="rounded=0;whiteSpace=wrap;html=1;strokeWidth=0.4;verticalAlign=middle;fontFamily=Helvetica;spacingBottom=3;" vertex="1" parent="1">
          <mxGeometry x="1378" y="1693" width="35" height="15" as="geometry" />
        </mxCell>
        <mxCell id="TDS3gWY0blJskkFoiAuT-54" value="&lt;p style=&quot;line-height: 100%;&quot;&gt;&lt;/p&gt;&lt;div style=&quot;line-height: 100%;&quot; align=&quot;center&quot;&gt;&lt;font face=&quot;Times New Roman&quot; style=&quot;font-size: 10px;&quot;&gt;v[1][1]&lt;/font&gt;&lt;/div&gt;&lt;p&gt;&lt;/p&gt;" style="rounded=0;whiteSpace=wrap;html=1;strokeWidth=0.4;verticalAlign=middle;fontFamily=Helvetica;align=center;spacingBottom=3;" vertex="1" parent="1">
          <mxGeometry x="1343" y="1693" width="35" height="15" as="geometry" />
        </mxCell>
        <mxCell id="TDS3gWY0blJskkFoiAuT-55" value="&lt;p style=&quot;line-height: 90%;&quot;&gt;&lt;font face=&quot;Times New Roman&quot; style=&quot;font-size: 10px;&quot;&gt;v[1][2]&lt;/font&gt;&lt;/p&gt;" style="rounded=0;whiteSpace=wrap;html=1;strokeWidth=0.4;verticalAlign=middle;fontFamily=Helvetica;spacingBottom=3;" vertex="1" parent="1">
          <mxGeometry x="1308" y="1693" width="35" height="15" as="geometry" />
        </mxCell>
        <mxCell id="TDS3gWY0blJskkFoiAuT-56" value="&lt;p style=&quot;line-height: 100%;&quot;&gt;&lt;font face=&quot;Times New Roman&quot; style=&quot;font-size: 10px;&quot;&gt;v[1][3]&lt;/font&gt;&lt;/p&gt;" style="rounded=0;whiteSpace=wrap;html=1;strokeWidth=0.4;verticalAlign=middle;fontFamily=Helvetica;spacingBottom=3;" vertex="1" parent="1">
          <mxGeometry x="1273" y="1693" width="35" height="15" as="geometry" />
        </mxCell>
        <mxCell id="TDS3gWY0blJskkFoiAuT-57" value="&lt;p style=&quot;line-height: 100%;&quot;&gt;&lt;font face=&quot;Times New Roman&quot; style=&quot;font-size: 10px;&quot;&gt;v[0]&lt;/font&gt;&lt;/p&gt;" style="rounded=0;whiteSpace=wrap;html=1;strokeWidth=0.4;verticalAlign=middle;fontFamily=Georgia;spacingBottom=3;" vertex="1" parent="1">
          <mxGeometry x="1413" y="1678" width="140" height="15" as="geometry" />
        </mxCell>
        <mxCell id="TDS3gWY0blJskkFoiAuT-58" value="&lt;p style=&quot;line-height: 100%;&quot;&gt;&lt;font face=&quot;Times New Roman&quot; style=&quot;font-size: 10px;&quot;&gt;v[0][0]&lt;/font&gt;&lt;/p&gt;" style="rounded=0;whiteSpace=wrap;html=1;strokeWidth=0.4;verticalAlign=middle;fontFamily=Helvetica;spacingBottom=3;" vertex="1" parent="1">
          <mxGeometry x="1518" y="1693" width="35" height="15" as="geometry" />
        </mxCell>
        <mxCell id="TDS3gWY0blJskkFoiAuT-59" value="&lt;p style=&quot;line-height: 100%;&quot;&gt;&lt;/p&gt;&lt;div style=&quot;line-height: 100%;&quot; align=&quot;center&quot;&gt;&lt;font face=&quot;Times New Roman&quot; style=&quot;font-size: 10px;&quot;&gt;v[0][1]&lt;/font&gt;&lt;/div&gt;&lt;p&gt;&lt;/p&gt;" style="rounded=0;whiteSpace=wrap;html=1;strokeWidth=0.4;verticalAlign=middle;fontFamily=Helvetica;align=center;spacingBottom=3;" vertex="1" parent="1">
          <mxGeometry x="1483" y="1693" width="35" height="15" as="geometry" />
        </mxCell>
        <mxCell id="TDS3gWY0blJskkFoiAuT-60" value="&lt;p style=&quot;line-height: 90%;&quot;&gt;&lt;font face=&quot;Times New Roman&quot; style=&quot;font-size: 10px;&quot;&gt;v[0][2]&lt;/font&gt;&lt;/p&gt;" style="rounded=0;whiteSpace=wrap;html=1;strokeWidth=0.4;verticalAlign=middle;fontFamily=Helvetica;spacingBottom=3;" vertex="1" parent="1">
          <mxGeometry x="1448" y="1693" width="35" height="15" as="geometry" />
        </mxCell>
        <mxCell id="TDS3gWY0blJskkFoiAuT-61" value="&lt;p style=&quot;line-height: 100%;&quot;&gt;&lt;font face=&quot;Times New Roman&quot; style=&quot;font-size: 10px;&quot;&gt;v[0][3]&lt;/font&gt;&lt;/p&gt;" style="rounded=0;whiteSpace=wrap;html=1;strokeWidth=0.4;verticalAlign=middle;fontFamily=Helvetica;spacingBottom=3;" vertex="1" parent="1">
          <mxGeometry x="1413" y="1693" width="35" height="15" as="geometry" />
        </mxCell>
        <mxCell id="TDS3gWY0blJskkFoiAuT-63" value="&lt;div align=&quot;center&quot;&gt;&lt;font style=&quot;font-size: 17px;&quot; face=&quot;Times New Roman&quot;&gt;var v : logic&amp;lt;3, 4&amp;gt;;&lt;/font&gt;&lt;/div&gt;" style="text;whiteSpace=wrap;html=1;align=center;" vertex="1" parent="1">
          <mxGeometry x="1268" y="1641" width="153" height="36" as="geometry" />
        </mxCell>
      </root>
    </mxGraphModel>
  </diagram>
</mxfile>
